<?xml version="1.0" encoding="UTF-8"?>
<svg version="1.1" xmlns="http://www.w3.org/2000/svg" width="500" height="500">
<path d="M0 0 C165 0 330 0 500 0 C500 165 500 330 500 500 C335 500 170 500 0 500 C0 335 0 170 0 0 Z " fill="#FEFEFE" transform="translate(0,0)"/>
<path d="M0 0 C0.9126726 -0.00843994 1.82534519 -0.01687988 2.76567453 -0.02557558 C3.76974503 -0.01956553 4.77381554 -0.01355549 5.80831242 -0.00736332 C7.40663468 -0.01544163 7.40663468 -0.01544163 9.03724629 -0.02368313 C12.62560665 -0.03804782 16.21360252 -0.03083792 19.80198002 -0.023736 C22.36733136 -0.0294351 24.93268017 -0.03639757 27.49802494 -0.04453373 C33.75349279 -0.06065975 40.00882493 -0.06255548 46.26430731 -0.05732083 C51.34764107 -0.05328345 56.43094512 -0.05471752 61.51427746 -0.06006908 C62.59848934 -0.06119172 62.59848934 -0.06119172 63.7046045 -0.06233703 C65.17287398 -0.06386847 66.64114345 -0.06540682 68.10941292 -0.066952 C81.88652871 -0.08068807 95.66358776 -0.07523164 109.44070227 -0.06376678 C122.05082558 -0.05383362 134.66080218 -0.06677449 147.27090286 -0.09070098 C160.21193446 -0.11507079 173.15289767 -0.12470505 186.09395176 -0.11804825 C193.36218981 -0.11455125 200.63031499 -0.11681963 207.89853573 -0.13429928 C214.7316445 -0.15052831 221.56446794 -0.14587263 228.3975687 -0.12699413 C230.90986736 -0.12329333 233.42218659 -0.12645977 235.93446636 -0.13687992 C239.35547155 -0.14998914 242.77553235 -0.13863103 246.19649601 -0.12088871 C247.19833579 -0.13049372 248.20017557 -0.14009872 249.23237413 -0.14999479 C255.91119229 -0.07837973 255.91119229 -0.07837973 259.18297768 2.21388817 C261.2822523 5.50253388 261.06467089 7.5236482 260.56589603 11.38031673 C259.49616034 14.62105449 258.07193499 17.66601344 256.62839603 20.75531673 C255.70007502 22.81609039 254.77593373 24.87874971 253.85495853 26.94281673 C253.07427006 28.69078548 253.07427006 28.69078548 252.2778101 30.47406673 C248.87826474 38.17369269 245.7137395 45.97553146 242.50339603 53.75531673 C241.76923561 55.53125071 241.03494058 57.30712905 240.30051517 59.08295345 C238.80075795 62.71005863 237.30193679 66.33754876 235.803689 69.96527767 C232.58394756 77.75922791 229.35212857 85.54816714 226.12079716 93.33731747 C224.35462526 97.59494289 222.58917233 101.8528664 220.82370853 106.11078548 C220.47346119 106.95546886 220.12321384 107.80015224 219.76235294 108.67043209 C217.6166357 113.84541171 215.47160529 119.0206755 213.32706547 124.19614315 C205.95062996 141.99779376 198.56539908 159.79564724 191.14835453 177.58042049 C185.74413323 190.53960317 180.36276231 203.50817589 174.9889307 216.47998714 C171.18295482 225.6668926 167.37295444 234.85204082 163.54245853 244.02875423 C163.2157819 244.81159786 162.88910526 245.59444149 162.55252934 246.40100765 C161.03707193 250.03214019 159.52044764 253.66277613 158.00144291 257.29242611 C154.22761966 266.32363782 150.52064618 275.38127062 146.83103275 284.44721127 C146.31823553 285.70666673 145.80541323 286.966112 145.29256535 288.22554684 C144.05009661 291.2770369 142.80787966 294.3286292 141.56589603 297.38031673 C142.8309488 297.37755136 144.09600157 297.37478598 145.39938927 297.3719368 C175.40942738 297.30700436 205.41944742 297.25751581 235.42953854 297.22712075 C239.12090587 297.22336849 242.81227306 297.21948554 246.50364017 297.21552181 C247.23854448 297.21473488 247.97344878 297.21394795 248.73062291 297.21313717 C260.63996096 297.20007282 272.54925569 297.17641333 284.45856801 297.14885835 C296.67288383 297.12083275 308.88717692 297.10414651 321.10152358 297.09805125 C328.64227744 297.09392888 336.18290889 297.08089516 343.72362509 297.05656733 C349.49970844 297.0388785 355.27571285 297.0369439 361.05181789 297.04099369 C363.42586237 297.04016534 365.79991129 297.03415825 368.17392826 297.02270031 C371.4047995 297.00786596 374.63513868 297.01133007 377.86602116 297.01955318 C378.81445591 297.01081466 379.76289067 297.00207614 380.74006587 296.99307281 C381.60295433 296.99904595 382.46584279 297.0050191 383.35487938 297.01117325 C384.47410505 297.00946451 384.47410505 297.00946451 385.61594135 297.00772125 C388.14066023 297.49014213 389.00662607 298.36943044 390.56589603 300.38031673 C391.43093337 303.50775942 391.85041236 305.52676775 390.81589603 308.63031673 C389.56589603 310.38031673 389.56589603 310.38031673 386.56589603 312.38031673 C384.53077561 312.6333164 384.53077561 312.6333164 382.14740944 312.63758564 C381.23822024 312.64403453 380.32903104 312.65048342 379.39229065 312.65712774 C378.3921111 312.65403053 377.39193154 312.65093333 376.36144352 312.64774227 C374.76924658 312.65453894 374.76924658 312.65453894 373.14488405 312.66147292 C369.57041538 312.67418349 365.99609777 312.67249226 362.42160892 312.67084408 C359.8661107 312.67682512 357.31061429 312.68362968 354.75512028 312.6911993 C348.52374379 312.70706726 342.29242311 312.7133095 336.06102831 312.71442406 C330.99724559 312.71537375 325.93347538 312.7194801 320.86969662 312.72582531 C306.51991998 312.74344109 292.17017329 312.75266356 277.82038576 312.75116436 C277.04651401 312.75108445 276.27264227 312.75100454 275.47531986 312.7509222 C274.70050577 312.75084044 273.92569167 312.75075868 273.12739836 312.75067444 C260.56577895 312.74986125 248.00427936 312.76900625 235.44269461 312.79719894 C222.55139029 312.82590389 209.66014446 312.83974058 196.76880735 312.83801138 C189.52850691 312.83734669 182.28833212 312.84287349 175.04806042 312.86436749 C168.2412203 312.88444496 161.43469012 312.88393015 154.62782192 312.86933422 C152.12519412 312.86723497 149.62255001 312.87201282 147.11995029 312.88405514 C143.7120937 312.89939537 140.30516746 312.89027328 136.89733219 312.87479305 C135.89938336 312.88508018 134.90143453 312.89536731 133.87324482 312.90596616 C127.22799842 312.83893341 127.22799842 312.83893341 123.95533752 310.57206821 C121.80206608 307.17542582 121.82189292 304.20329156 122.56589603 300.38031673 C123.19230751 298.81838966 123.88394534 297.281998 124.61667728 295.76703548 C126.93148246 290.81858032 129.08709143 285.82556283 131.17527103 280.77875423 C131.50169086 279.99043713 131.82811069 279.20212002 132.16442204 278.38991451 C133.21633393 275.84563299 134.26610469 273.30047385 135.31589603 270.75531673 C136.06764641 268.93687353 136.81960369 267.11851585 137.57175541 265.30023861 C139.13114731 261.53006011 140.68965665 257.75951864 142.24753666 253.98871517 C145.49651253 246.12657316 148.75633998 238.26893523 152.01603031 230.41123104 C153.78049816 226.15762333 155.54428646 221.90373387 157.30808353 217.64984798 C157.65835606 216.80510418 158.00862858 215.96036037 158.36951542 215.09001827 C160.5152067 209.91509947 162.66021209 204.73989689 164.8047266 199.56449032 C172.18185458 181.76116858 179.56830089 163.96186558 186.9854517 146.17517757 C191.98430904 134.1867294 196.96720966 122.19172883 201.94089603 110.19281673 C202.29373661 109.34165279 202.64657719 108.49048885 203.0101099 107.61353207 C206.62992096 98.88103202 210.24816844 90.14788523 213.86487675 81.41409969 C220.90563127 64.41267189 227.95278967 47.41412868 235.06589603 30.44281673 C235.34397099 29.77884884 235.62204594 29.11488094 235.9085474 28.43079281 C236.67891824 26.59200546 237.45049715 24.75372437 238.22214603 22.91547298 C238.65333744 21.88817074 239.08452885 20.86086849 239.52878666 19.80243587 C240.16759783 18.31052305 240.84010218 16.83190444 241.56589603 15.38031673 C239.67881286 15.38723018 239.67881286 15.38723018 237.7536068 15.39428329 C207.89795921 15.50254447 178.04236219 15.58500515 148.18656646 15.63564338 C144.51279772 15.641897 140.83902939 15.64836861 137.16526127 15.65497494 C136.06817767 15.65694227 136.06817767 15.65694227 134.94893076 15.65894934 C123.1023345 15.68071304 111.25585941 15.72013982 99.40933505 15.76608071 C87.2560351 15.81281863 75.10279866 15.84060647 62.94941252 15.85075921 C55.44849085 15.85762395 47.94791163 15.87931444 40.44709536 15.91989907 C34.69793982 15.94942368 28.94900432 15.95259761 23.19978809 15.94585514 C20.83947037 15.94723366 18.47913999 15.9572187 16.11889935 15.97634411 C12.9015567 16.00114167 9.68569135 15.99526947 6.46831608 15.98158932 C5.06023889 16.00343563 5.06023889 16.00343563 3.6237157 16.02572328 C-0.87524369 15.97384825 -2.83961977 15.8208126 -6.55300522 13.0692997 C-8.43410397 10.38031673 -8.43410397 10.38031673 -8.43410397 6.75531673 C-6.94185285 1.71896922 -5.28176224 0.00688446 0 0 Z " fill="#F12323" transform="translate(58.43410396575928,85.61968326568604)"/>
<path d="M0 0 C1.06176234 -0.00709439 2.12352469 -0.01418877 3.21746165 -0.02149814 C6.78137286 -0.03912422 10.34420018 -0.0209486 13.90809631 -0.00291443 C16.46064756 -0.00805147 19.01319527 -0.01533111 21.56573486 -0.02459717 C27.78292978 -0.04122001 33.99972174 -0.0344576 40.21690147 -0.01650894 C45.27014807 -0.00248378 50.32330937 0.00141005 55.37657356 -0.00195122 C56.45534977 -0.00266738 56.45534977 -0.00266738 57.55591943 -0.00339801 C59.01693739 -0.00442434 60.47795533 -0.0054797 61.93897326 -0.00656378 C74.85940787 -0.01513217 87.7796908 0.0015479 100.7000885 0.03126526 C113.23563511 0.06009704 125.77096315 0.06718926 138.30653381 0.05177307 C151.95730592 0.0350084 165.60797425 0.03097986 179.25874907 0.04848343 C180.71470073 0.05032781 182.1706524 0.05216254 183.62660408 0.0539875 C184.34295354 0.05489959 185.059303 0.05581168 185.79736001 0.05675141 C190.84359206 0.06235563 195.88977343 0.05905065 200.93600273 0.05244255 C207.72978175 0.04389923 214.52319869 0.0568786 221.31694221 0.08429146 C223.81226795 0.09118548 226.30762308 0.09126244 228.802948 0.08407593 C232.20565529 0.07540456 235.60738437 0.09129974 239.01000977 0.11352539 C240.49614813 0.10116424 240.49614813 0.10116424 242.01230949 0.08855337 C247.85207689 0.15909761 251.08298064 0.80801986 255.5684967 4.62818909 C257.25257874 6.46485901 257.25257874 6.46485901 258.5763092 8.35865784 C259.0816217 9.07022034 259.5869342 9.78178284 260.1075592 10.51490784 C260.63091858 11.27416565 261.15427795 12.03342346 261.6934967 12.81568909 C262.25552795 13.61232971 262.8175592 14.40897034 263.3966217 15.22975159 C265.12977686 17.68958839 266.84927213 20.15860392 268.5684967 22.62818909 C270.07653683 24.77111884 271.58854075 26.91120555 273.10096741 29.05104065 C274.08513351 30.44403436 275.0680297 31.8379261 276.04969788 33.23268127 C282.39397934 42.24282794 288.87535228 51.15412938 295.34291077 60.07594299 C297.10649508 62.50938247 298.86876327 64.94377125 300.6309967 67.37818909 C301.16716614 68.11674133 301.70333557 68.85529358 302.25575256 69.6162262 C303.25318552 70.99429821 304.24345503 72.37759385 305.22523499 73.76686096 C306.42847709 75.434167 307.71081857 77.04371474 309.00209045 78.64381409 C311.06416937 82.57256294 310.51665131 85.45282686 309.5684967 89.62818909 C308.3825106 93.23632841 306.93805562 96.71790456 305.4669342 100.21803284 C305.04260605 101.25021942 304.61827789 102.28240601 304.18109131 103.34587097 C302.77720685 106.75611572 301.36016009 110.16073554 299.9434967 113.56568909 C298.69848875 116.5840644 297.45582537 119.60339278 296.2138052 122.62299824 C295.8350781 123.54368485 295.8350781 123.54368485 295.44869995 124.48297119 C295.19434488 125.10134039 294.93998981 125.71970959 294.67792702 126.35681725 C293.89415564 128.26085704 293.10908486 130.16435635 292.32366943 132.06771851 C287.17948649 144.53861285 282.12896175 157.04638298 277.09199524 169.56095886 C274.68167361 175.54920392 272.2674687 181.53588308 269.85365295 187.52272034 C269.16665314 189.22705482 269.16665314 189.22705482 268.46577454 190.96582031 C264.51136782 200.774553 260.54429731 210.57811059 256.5684967 220.37818909 C256.27266693 221.1074057 255.97683716 221.83662231 255.67204285 222.5879364 C254.21985876 226.16723099 252.76731212 229.74637829 251.31459045 233.32545471 C248.54494533 240.14959162 245.77876538 246.97513353 243.01213074 253.80049133 C242.07725677 256.1065803 241.14213036 258.41256675 240.20692444 260.71852112 C236.6581372 269.46939732 233.11447973 278.2223255 229.57550049 286.97717285 C227.06326699 293.18983172 224.54125863 299.39847402 222.01364136 305.60488892 C220.32145849 309.76328647 218.64922449 313.92900422 216.9903717 318.10084534 C216.28777068 319.83933844 215.5847041 321.57764353 214.8809967 323.31568909 C214.59039368 324.06350647 214.29979065 324.81132385 214.00038147 325.58180237 C212.84978574 328.38674407 212.04126362 330.2977025 209.51771545 332.06178284 C206.97718237 332.80001389 205.20167151 333.02316531 202.5684967 332.62818909 C200.2559967 331.12818909 200.2559967 331.12818909 198.5684967 328.62818909 C197.66215294 321.03756003 200.36196096 315.43125414 203.3809967 308.56568909 C204.49183132 305.97346754 205.59175858 303.37663114 206.6934967 300.78053284 C206.99492081 300.07423737 207.29634491 299.36794189 207.60690308 298.64024353 C211.413171 289.69917337 215.02832774 280.68066176 218.65751648 271.66664124 C220.30193797 267.58280244 221.95012893 263.50048906 223.59823608 259.4181366 C224.41765462 257.38840139 225.23689982 255.3585962 226.05596924 253.32872009 C229.75838088 244.15360816 233.4740017 234.98388608 237.1934967 225.81568909 C238.40714578 222.82354514 239.62066633 219.83134909 240.8341217 216.83912659 C241.28677147 215.72296715 241.28677147 215.72296715 241.74856567 214.58425903 C245.48429358 205.37138946 249.21393204 196.15605499 252.9434967 186.94068909 C253.29718323 186.06678528 253.65086975 185.19288147 254.01527405 184.29249573 C256.53316333 178.07112023 259.0508546 171.84966461 261.5684967 165.62818909 C262.29050028 163.84400874 263.01250549 162.05982905 263.73451233 160.27565002 C264.26989876 158.95257339 264.26989876 158.95257339 264.81610107 157.60276794 C265.53617628 155.82351216 266.25640119 154.04431695 266.97677612 152.2651825 C268.75172717 147.88113913 270.52438628 143.49619966 272.29188538 139.10914612 C275.46030644 131.25230663 278.64827289 123.40595389 281.9276886 115.59466553 C283.37019198 112.15641447 284.80070766 108.71323321 286.23054504 105.2696991 C286.90818229 103.64804433 287.59204013 102.0289734 288.28242493 100.41270447 C289.23052404 98.19248453 290.15740556 95.96448203 291.08021545 93.73365784 C291.3646199 93.08360779 291.64902435 92.43355774 291.94204712 91.7638092 C293.1493873 88.79042145 293.6748911 87.04669865 292.87391663 83.89601135 C291.7236298 81.89769186 290.58225555 80.05738781 289.1700592 78.23756409 C288.69705383 77.61961975 288.22404846 77.00167542 287.73670959 76.36500549 C287.22744934 75.70935608 286.71818909 75.05370667 286.1934967 74.37818909 C281.89219332 68.74495724 277.69559215 63.0596573 273.6309967 57.25318909 C268.96282264 50.5923707 264.23469212 43.9787381 259.45936584 37.39430237 C258.9668634 36.7148053 258.47436096 36.03530823 257.9669342 35.33522034 C257.19339568 34.32906331 257.19339568 34.32906331 256.40423012 33.30257988 C254.5684967 30.62818909 254.5684967 30.62818909 252.91296959 27.16288948 C250.39401509 22.23959323 247.67145785 17.68954241 242.21809435 15.82424498 C234.88116061 14.50661999 227.41760536 14.85752229 219.99671936 15.01051331 C217.47959323 15.01114874 214.962459 15.00556068 212.44535828 14.99423218 C207.03687096 14.98340912 201.63129607 15.01493837 196.22330093 15.08503342 C188.40068554 15.18599695 180.57949127 15.205277 172.75630133 15.20433952 C160.05666032 15.20464349 147.35804947 15.2643339 134.65882874 15.36451721 C122.33790329 15.46153419 110.01716101 15.54047044 97.69593811 15.58815002 C96.55626508 15.59257914 96.55626508 15.59257914 95.39356835 15.59709774 C87.10027042 15.62872684 78.80696635 15.65431339 70.51363182 15.67405891 C69.785057 15.67581154 69.05648218 15.67756417 68.30582934 15.6793699 C65.393612 15.68632884 62.48139488 15.69327696 59.56917588 15.69951166 C51.04391029 15.7179938 42.51919573 15.75515561 33.99419479 15.82581063 C28.02175024 15.87498769 22.04936531 15.90610213 16.07676315 15.93091393 C13.62407181 15.94479012 11.17140895 15.96567681 8.71884155 15.99397087 C5.37936299 16.03179537 2.04063681 16.04534409 -1.29902649 16.05296326 C-2.27663669 16.07027335 -3.25424689 16.08758344 -4.26148164 16.10541809 C-10.78769732 16.08486683 -10.78769732 16.08486683 -14.02962685 13.78523445 C-15.98327456 10.77918727 -16.07785168 9.14719695 -15.4315033 5.62818909 C-11.14897248 -0.40301679 -6.81415316 -0.08121985 0 0 Z " fill="#F12323" transform="translate(95.43150329589844,13.371810913085938)"/>
<path d="M0 0 C4.8735883 0.59676591 4.8735883 0.59676591 7.0625 3.375 C7.74640712 10.95891585 5.9468893 16.31811426 2.98828125 23.23828125 C2.34173584 24.80426559 2.34173584 24.80426559 1.68212891 26.40188599 C0.26063444 29.83652242 -1.18234881 33.26170305 -2.625 36.6875 C-3.62978557 39.10676702 -4.63276877 41.52678333 -5.6340332 43.94750977 C-7.18409157 47.69423261 -8.73531491 51.44044123 -10.29386902 55.18363953 C-15.0549093 66.62023751 -19.70596448 78.10000017 -24.32943726 89.59283447 C-26.06231747 93.89929875 -27.79950394 98.20402045 -29.53666687 102.50875854 C-30.82381665 105.69839373 -32.11042713 108.88824605 -33.39697266 112.078125 C-37.53046173 122.32494472 -41.67123654 132.56882037 -45.8125 142.8125 C-46.20621796 143.78643707 -46.59993591 144.76037415 -47.00558472 145.76382446 C-54.01575349 163.10394881 -61.03933355 180.43861448 -68.06982422 197.77050781 C-71.12831902 205.31054567 -74.18576897 212.8510072 -77.24304199 220.39154053 C-78.22604581 222.81592181 -79.2092063 225.24023952 -80.19238281 227.66455078 C-80.79102221 229.14094785 -81.38965536 230.61734745 -81.98828125 232.09375 C-82.39343712 233.09261734 -82.39343712 233.09261734 -82.80677795 234.11166382 C-83.51789986 235.86575222 -84.22775181 237.62035532 -84.9375 239.375 C-85.32832764 240.24705078 -85.71915527 241.11910156 -86.12182617 242.01757812 C-87.05141822 244.70424105 -87.27723201 246.55150587 -86.9375 249.375 C-85.84634096 251.53242668 -85.84634096 251.53242668 -84.2265625 253.52734375 C-83.64640381 254.2963501 -83.06624512 255.06535645 -82.46850586 255.85766602 C-81.83952393 256.66776123 -81.21054199 257.47785645 -80.5625 258.3125 C-79.26349645 260.02802034 -77.96532362 261.74417002 -76.66796875 263.4609375 C-75.70769775 264.72115723 -75.70769775 264.72115723 -74.72802734 266.00683594 C-72.38287329 269.10855319 -70.1185567 272.26191733 -67.875 275.4375 C-67.08111114 276.55495897 -66.28683298 277.67214145 -65.4921875 278.7890625 C-65.08581055 279.36043945 -64.67943359 279.93181641 -64.26074219 280.52050781 C-61.68710566 284.12739768 -59.09342506 287.71982569 -56.5 291.3125 C-55.95633789 292.06668213 -55.41267578 292.82086426 -54.85253906 293.59790039 C-52.14660461 297.34491938 -49.4237949 301.07754465 -46.6640625 304.78515625 C-45.89533813 305.82071655 -45.89533813 305.82071655 -45.11108398 306.87719727 C-44.14080749 308.18157916 -43.16652972 309.48299685 -42.18774414 310.78100586 C-38.9375 315.15349605 -38.9375 315.15349605 -38.9375 317.375 C-37.6218317 317.37131283 -36.30616341 317.36762566 -34.95062637 317.36382675 C-3.73480439 317.27723666 27.48098591 317.21125868 58.69689988 317.17073868 C62.53719127 317.16573572 66.37748242 317.16055845 70.21777344 317.15527344 C70.98232158 317.1542242 71.74686972 317.15317495 72.53458598 317.15209392 C84.92178777 317.13467819 97.30891546 317.10313411 109.69607326 317.06638882 C122.40194739 317.02901181 135.10778265 317.00677102 147.8137095 316.99864602 C155.65698661 316.99315149 163.50005432 316.97578399 171.34326699 316.94333413 C177.35265433 316.91973457 183.36186069 316.91717194 189.37129974 316.92256927 C191.84007051 316.9214655 194.30884894 316.91346498 196.77757263 316.8981781 C200.1395883 316.87837452 203.50069673 316.88302622 206.86273193 316.89398193 C207.84716333 316.88233057 208.83159473 316.8706792 209.84585738 316.85867476 C216.41343714 316.91681047 216.41343714 316.91681047 219.67264175 319.21756363 C221.56726658 322.15853442 221.56358725 323.93897316 221.0625 327.375 C219.28265595 330.5109157 218.53941793 331.21602736 215.0625 332.375 C213.5999902 332.46967379 212.13357171 332.50942284 210.66801071 332.5148077 C209.764155 332.52049894 208.8602993 332.52619018 207.92905402 332.53205389 C206.93481178 332.53323376 205.94056953 332.53441364 204.91619873 332.53562927 C203.33330217 332.543261 203.33330217 332.543261 201.7184279 332.55104691 C198.16482567 332.56680533 194.61124382 332.57530537 191.05761719 332.58374023 C188.51683929 332.59327583 185.97606271 332.60316686 183.43528748 332.61338806 C175.7983323 332.64209046 168.16137429 332.66185743 160.52438486 332.67878041 C158.36743376 332.68357583 156.21048317 332.68855909 154.0535326 332.69358563 C140.65922214 332.72455464 127.26490736 332.75123979 113.87057114 332.76800442 C110.76836896 332.77195391 107.66616686 332.77595691 104.56396484 332.7800293 C103.40741002 332.78154184 103.40741002 332.78154184 102.22749045 332.78308494 C89.73574952 332.80009375 77.24420661 332.84120593 64.75256237 332.89205229 C51.92792345 332.94382478 39.1033864 332.97294606 26.27864385 332.9802013 C19.07783947 332.98486377 11.87735953 332.99961695 4.67665863 333.0399456 C-2.09662058 333.07783448 -8.86924873 333.08524522 -15.64265251 333.07193947 C-18.12952577 333.07199354 -20.61642314 333.08233755 -23.10320473 333.1036911 C-26.49723089 333.13127867 -29.88922266 333.12190376 -33.28326416 333.10325623 C-34.26858352 333.12005115 -35.25390288 333.13684608 -36.2690804 333.15414995 C-42.13747507 333.07351378 -45.31648134 332.10270271 -49.54506469 327.95639187 C-51.74620842 325.45654805 -53.68263508 322.87504975 -55.5625 320.125 C-56.42234632 318.88484026 -57.28306782 317.64528698 -58.14453125 316.40625 C-58.82056396 315.42591797 -58.82056396 315.42591797 -59.51025391 314.42578125 C-62.04063942 310.78992112 -64.64953128 307.21088905 -67.25 303.625 C-68.35695283 302.09388156 -69.46372186 300.56263023 -70.5703125 299.03125 C-71.69266235 297.47913341 -72.81505834 295.92705019 -73.9375 294.375 C-89.61305071 272.69971622 -89.61305071 272.69971622 -93.52954102 267.15063477 C-95.33791642 264.58911446 -97.17416111 262.07321452 -99.109375 259.60546875 C-100.07617188 258.34669922 -100.07617188 258.34669922 -101.0625 257.0625 C-101.62195313 256.36511719 -102.18140625 255.66773438 -102.7578125 254.94921875 C-104.96211699 250.1391636 -104.65618233 245.70036009 -103.10742188 240.68920898 C-101.86223456 237.50205817 -100.51092487 234.37856269 -99.125 231.25 C-98.30634809 229.34715048 -97.49453122 227.44147238 -96.68309021 225.53553772 C-96.08708222 224.13584504 -95.48933702 222.73689106 -94.89002991 221.33860779 C-91.11615974 212.51225237 -87.54618125 203.60344075 -83.96218872 194.69873047 C-82.32897501 190.64162056 -80.69147504 186.58624568 -79.05415344 182.53079224 C-77.81838957 179.46975652 -76.5832406 176.40847319 -75.34814453 173.34716797 C-71.63476335 164.14534722 -67.9112587 154.9476249 -64.1875 145.75 C-63.48364105 144.01123109 -62.77978362 142.27246156 -62.07592773 140.53369141 C-55.64975893 124.65995468 -49.21583259 108.78936509 -42.78027344 92.91943359 C-40.60479873 87.55467774 -38.42973828 82.18975396 -36.25494385 76.82472229 C-34.6984112 72.98493333 -33.14156702 69.14527137 -31.58398438 65.3059082 C-28.67323184 58.13009599 -25.76569716 50.95302792 -22.86895752 43.77154541 C-21.51141951 40.40653552 -20.152136 37.04223195 -18.79272461 33.67797852 C-18.14976528 32.08539307 -17.5076463 30.49246805 -16.86645508 28.89916992 C-5.5193054 0.70459218 -5.5193054 0.70459218 0 0 Z " fill="#F12323" transform="translate(198.9375,134.625)"/>
</svg>
